<?xml version="1.0" encoding="UTF-8" standalone="no"?>
<svg
   xmlns:dc="http://purl.org/dc/elements/1.1/"
   xmlns:cc="http://creativecommons.org/ns#"
   xmlns:rdf="http://www.w3.org/1999/02/22-rdf-syntax-ns#"
   xmlns:svg="http://www.w3.org/2000/svg"
   xmlns="http://www.w3.org/2000/svg"
   xmlns:sodipodi="http://sodipodi.sourceforge.net/DTD/sodipodi-0.dtd"
   xmlns:inkscape="http://www.inkscape.org/namespaces/inkscape"
   width="256pt"
   height="256pt"
   viewBox="0 0 256 256"
   version="1.1"
   id="svg2"
   inkscape:version="0.48.4 r9939"
   sodipodi:docname="save.svg">
  <metadata
     id="metadata16">
    <rdf:RDF>
      <cc:Work
         rdf:about="">
        <dc:format>image/svg+xml</dc:format>
        <dc:type
           rdf:resource="http://purl.org/dc/dcmitype/StillImage" />
      </cc:Work>
    </rdf:RDF>
  </metadata>
  <defs
     id="defs14" />
  <sodipodi:namedview
     pagecolor="#ffffff"
     bordercolor="#666666"
     borderopacity="1"
     objecttolerance="10"
     gridtolerance="10"
     guidetolerance="10"
     inkscape:pageopacity="0"
     inkscape:pageshadow="2"
     inkscape:window-width="1920"
     inkscape:window-height="1124"
     id="namedview12"
     showgrid="false"
     inkscape:zoom="0.7375"
     inkscape:cx="-100.33898"
     inkscape:cy="160"
     inkscape:window-x="1920"
     inkscape:window-y="24"
     inkscape:window-maximized="1"
     inkscape:current-layer="svg2" />
  <path
     fill="#000000"
     d=" M 29.01 29.02 C 44.15 28.99 59.28 28.99 74.41 29.01 C 74.63 51.64 74.39 74.28 74.52 96.91 C 74.22 101.47 78.57 105.11 82.97 104.75 C 112.32 104.76 141.68 104.74 171.03 104.76 C 174.57 104.99 178.29 102.90 179.23 99.33 C 180.12 95.63 179.69 91.77 179.77 87.99 C 179.76 68.34 179.69 48.68 179.80 29.03 C 189.43 29.18 199.10 28.58 208.70 29.28 C 214.46 34.11 219.65 39.66 225.07 44.88 C 227.82 47.12 226.86 50.91 227.04 54.00 C 226.94 105.67 227.03 157.33 227.00 209.00 C 226.93 213.64 227.26 218.29 226.85 222.92 C 226.76 225.36 224.34 227.04 222.03 226.94 C 214.96 227.18 207.88 226.94 200.80 226.97 C 200.69 198.63 200.76 170.28 200.78 141.94 C 200.80 139.09 200.35 135.91 198.05 133.94 C 196.20 132.16 193.51 131.98 191.08 131.97 C 148.69 132.04 106.30 131.97 63.91 132.00 C 60.31 131.77 56.59 134.01 55.71 137.62 C 54.85 141.68 55.33 145.88 55.24 150.00 C 55.23 175.66 55.31 201.31 55.20 226.97 C 48.12 226.94 41.04 227.18 33.97 226.94 C 31.64 227.06 29.29 225.34 29.15 222.92 C 28.76 218.96 29.04 214.97 29.00 211.00 C 29.02 150.34 28.98 89.68 29.01 29.02 Z"
     id="path6"
     style="fill:#006e00;fill-opacity:1" />
  <path
     fill="#000000"
     d=" M 135.81 38.81 C 145.27 38.71 154.73 38.70 164.19 38.81 C 164.29 58.27 164.29 77.73 164.19 97.19 C 154.73 97.29 145.27 97.29 135.81 97.19 C 135.71 77.73 135.71 58.27 135.81 38.81 Z"
     id="path8"
     style="fill:#006e00;fill-opacity:1" />
  <path
     fill="#ffffff"
     d=" M 37.63 200.22 C 41.14 200.23 44.66 200.24 48.17 200.24 C 48.25 203.75 48.25 207.25 48.17 210.76 C 44.66 210.75 41.15 210.76 37.64 210.78 C 37.48 207.26 37.48 203.74 37.63 200.22 Z"
     id="path10" />
  <path
     style="fill:#008000;fill-opacity:0"
     d="m 38.74092,280.98789 c -1.905278,-1.90527 -2.130751,-14.96221 -2.130751,-123.38983 l 0,-121.259077 27.743973,0 27.743972,0 0.391622,44.86694 0.39162,44.866937 3.201063,2.59069 c 3.043253,2.46297 6.156681,2.59069 63.153471,2.59069 l 59.95241,0 2.94823,-3.13824 c 2.90286,-3.08996 2.94822,-3.82005 2.94822,-47.457628 l 0,-44.319389 11.8644,0.118788 c 22.06582,0.220925 23.20789,0.617606 35.50532,12.332236 l 10.93536,10.417127 0,109.825006 c 0,98.033 -0.22879,110.05379 -2.13075,111.95575 -1.64941,1.64943 -5.15621,2.13075 -15.52373,2.13075 l -13.39296,0 -0.40849,-56.23499 -0.40848,-56.23501 -3.08851,-3.08703 -3.08852,-3.08703 -85.34839,0 -85.348399,0 -3.088512,3.08701 -3.088513,3.08701 -0.420889,56.23502 -0.42089,56.23502 -13.380564,0 c -10.356238,0 -13.862162,-0.4816 -15.511313,-2.13075 z m 22.276029,-24.30992 0,-7.45763 -7.457627,0 -7.457627,0 0,7.45763 0,7.45762 7.457627,0 7.457627,0 0,-7.45762 z"
     id="path2984"
     inkscape:connector-curvature="0"
     transform="scale(0.8,0.8)" />
  <path
     style="fill:#008000;fill-opacity:0"
     d="m 38.74092,280.98789 c -1.905278,-1.90527 -2.130751,-14.96221 -2.130751,-123.38983 l 0,-121.259077 27.743973,0 27.743972,0 0.391622,44.86694 0.39162,44.866937 3.201063,2.59069 c 3.043253,2.46297 6.156681,2.59069 63.153471,2.59069 l 59.95241,0 2.94823,-3.13824 c 2.90286,-3.08996 2.94822,-3.82005 2.94822,-47.457628 l 0,-44.319389 11.8644,0.118788 c 22.06582,0.220925 23.20789,0.617606 35.50532,12.332236 l 10.93536,10.417127 0,109.825006 c 0,98.033 -0.22879,110.05379 -2.13075,111.95575 -1.64941,1.64943 -5.15621,2.13075 -15.52373,2.13075 l -13.39296,0 -0.40849,-56.23499 -0.40848,-56.23501 -3.08851,-3.08703 -3.08852,-3.08703 -85.34839,0 -85.348399,0 -3.088512,3.08701 -3.088513,3.08701 -0.420889,56.23502 -0.42089,56.23502 -13.380564,0 c -10.356238,0 -13.862162,-0.4816 -15.511313,-2.13075 z m 22.276029,-24.30992 0,-7.45763 -7.457627,0 -7.457627,0 0,7.45763 0,7.45762 7.457627,0 7.457627,0 0,-7.45762 z"
     id="path2986"
     inkscape:connector-curvature="0"
     transform="scale(0.8,0.8)" />
  <path
     style="fill:#008000;fill-opacity:0"
     d="m 38.74092,280.98789 c -1.905278,-1.90527 -2.130751,-14.96221 -2.130751,-123.38983 l 0,-121.259077 27.743973,0 27.743972,0 0.391622,44.86694 0.39162,44.866937 3.201063,2.59069 c 3.043253,2.46297 6.156681,2.59069 63.153471,2.59069 l 59.95241,0 2.94823,-3.13824 c 2.90286,-3.08996 2.94822,-3.82005 2.94822,-47.457628 l 0,-44.319389 11.8644,0.118788 c 22.06582,0.220925 23.20789,0.617606 35.50532,12.332236 l 10.93536,10.417127 0,109.825006 c 0,98.033 -0.22879,110.05379 -2.13075,111.95575 -1.64941,1.64943 -5.15621,2.13075 -15.52373,2.13075 l -13.39296,0 -0.40849,-56.23499 -0.40848,-56.23501 -3.08851,-3.08703 -3.08852,-3.08703 -85.34839,0 -85.348399,0 -3.088512,3.08701 -3.088513,3.08701 -0.420889,56.23502 -0.42089,56.23502 -13.380564,0 c -10.356238,0 -13.862162,-0.4816 -15.511313,-2.13075 z m 22.276029,-24.30992 0,-7.45763 -7.457627,0 -7.457627,0 0,7.45763 0,7.45762 7.457627,0 7.457627,0 0,-7.45762 z"
     id="path2988"
     inkscape:connector-curvature="0"
     transform="scale(0.8,0.8)" />
  <path
     style="fill:#008000;fill-opacity:0"
     d="m 38.74092,280.98789 c -1.905278,-1.90527 -2.130751,-14.96221 -2.130751,-123.38983 l 0,-121.259077 27.743973,0 27.743972,0 0.391622,44.86694 0.39162,44.866937 3.201063,2.59069 c 3.043253,2.46297 6.156681,2.59069 63.153471,2.59069 l 59.95241,0 2.94823,-3.13824 c 2.90286,-3.08996 2.94822,-3.82005 2.94822,-47.457628 l 0,-44.319389 11.8644,0.118788 c 22.06582,0.220925 23.20789,0.617606 35.50532,12.332236 l 10.93536,10.417127 0,109.825006 c 0,98.033 -0.22879,110.05379 -2.13075,111.95575 -1.64941,1.64943 -5.15621,2.13075 -15.52373,2.13075 l -13.39296,0 -0.40849,-56.23499 -0.40848,-56.23501 -3.08851,-3.08703 -3.08852,-3.08703 -85.34839,0 -85.348399,0 -3.088512,3.08701 -3.088513,3.08701 -0.420889,56.23502 -0.42089,56.23502 -13.380564,0 c -10.356238,0 -13.862162,-0.4816 -15.511313,-2.13075 z m 22.276029,-24.30992 0,-7.45763 -7.457627,0 -7.457627,0 0,7.45763 0,7.45762 7.457627,0 7.457627,0 0,-7.45762 z"
     id="path2990"
     inkscape:connector-curvature="0"
     transform="scale(0.8,0.8)" />
  <path
     style="fill:#008000;fill-opacity:0"
     d="m 38.74092,280.98789 c -1.905278,-1.90527 -2.130751,-14.96221 -2.130751,-123.38983 l 0,-121.259077 27.743973,0 27.743972,0 0.391622,44.86694 0.39162,44.866937 3.201063,2.59069 c 3.043253,2.46297 6.156681,2.59069 63.153471,2.59069 l 59.95241,0 2.94823,-3.13824 c 2.90286,-3.08996 2.94822,-3.82005 2.94822,-47.457628 l 0,-44.319389 11.8644,0.118788 c 22.06582,0.220925 23.20789,0.617606 35.50532,12.332236 l 10.93536,10.417127 0,109.825006 c 0,98.033 -0.22879,110.05379 -2.13075,111.95575 -1.64941,1.64943 -5.15621,2.13075 -15.52373,2.13075 l -13.39296,0 -0.40849,-56.23499 -0.40848,-56.23501 -3.08851,-3.08703 -3.08852,-3.08703 -85.34839,0 -85.348399,0 -3.088512,3.08701 -3.088513,3.08701 -0.420889,56.23502 -0.42089,56.23502 -13.380564,0 c -10.356238,0 -13.862162,-0.4816 -15.511313,-2.13075 z m 22.276029,-24.30992 0,-7.45763 -7.457627,0 -7.457627,0 0,7.45763 0,7.45762 7.457627,0 7.457627,0 0,-7.45762 z"
     id="path2992"
     inkscape:connector-curvature="0"
     transform="scale(0.8,0.8)" />
  <path
     style="fill:#008000;fill-opacity:0"
     d="m 38.74092,280.98789 c -1.905278,-1.90527 -2.130751,-14.96221 -2.130751,-123.38983 l 0,-121.259077 27.743973,0 27.743972,0 0.391622,44.86694 0.39162,44.866937 3.201063,2.59069 c 3.043253,2.46297 6.156681,2.59069 63.153471,2.59069 l 59.95241,0 2.94823,-3.13824 c 2.90286,-3.08996 2.94822,-3.82005 2.94822,-47.457628 l 0,-44.319389 11.8644,0.118788 c 22.06582,0.220925 23.20789,0.617606 35.50532,12.332236 l 10.93536,10.417127 0,109.825006 c 0,98.033 -0.22879,110.05379 -2.13075,111.95575 -1.64941,1.64943 -5.15621,2.13075 -15.52373,2.13075 l -13.39296,0 -0.40849,-56.23499 -0.40848,-56.23501 -3.08851,-3.08703 -3.08852,-3.08703 -85.34839,0 -85.348399,0 -3.088512,3.08701 -3.088513,3.08701 -0.420889,56.23502 -0.42089,56.23502 -13.380564,0 c -10.356238,0 -13.862162,-0.4816 -15.511313,-2.13075 z m 22.276029,-24.30992 0,-7.45763 -7.457627,0 -7.457627,0 0,7.45763 0,7.45762 7.457627,0 7.457627,0 0,-7.45762 z"
     id="path2994"
     inkscape:connector-curvature="0"
     transform="scale(0.8,0.8)" />
  <path
     style="fill:#008000;fill-opacity:0"
     d="m 38.74092,280.98789 c -1.905278,-1.90527 -2.130751,-14.96221 -2.130751,-123.38983 l 0,-121.259077 27.743973,0 27.743972,0 0.391622,44.86694 0.39162,44.866937 3.201063,2.59069 c 3.043253,2.46297 6.156681,2.59069 63.153471,2.59069 l 59.95241,0 2.94823,-3.13824 c 2.90286,-3.08996 2.94822,-3.82005 2.94822,-47.457628 l 0,-44.319389 11.8644,0.118788 c 22.06582,0.220925 23.20789,0.617606 35.50532,12.332236 l 10.93536,10.417127 0,109.825006 c 0,98.033 -0.22879,110.05379 -2.13075,111.95575 -1.64941,1.64943 -5.15621,2.13075 -15.52373,2.13075 l -13.39296,0 -0.40849,-56.23499 -0.40848,-56.23501 -3.08851,-3.08703 -3.08852,-3.08703 -85.34839,0 -85.348399,0 -3.088512,3.08701 -3.088513,3.08701 -0.420889,56.23502 -0.42089,56.23502 -13.380564,0 c -10.356238,0 -13.862162,-0.4816 -15.511313,-2.13075 z m 22.276029,-24.30992 0,-7.45763 -7.457627,0 -7.457627,0 0,7.45763 0,7.45762 7.457627,0 7.457627,0 0,-7.45762 z"
     id="path2996"
     inkscape:connector-curvature="0"
     transform="scale(0.8,0.8)" />
  <path
     style="fill:#008000;fill-opacity:0"
     d="m 38.74092,280.98789 c -1.905278,-1.90527 -2.130751,-14.96221 -2.130751,-123.38983 l 0,-121.259077 27.743973,0 27.743972,0 0.391622,44.86694 0.39162,44.866937 3.201063,2.59069 c 3.043253,2.46297 6.156681,2.59069 63.153471,2.59069 l 59.95241,0 2.94823,-3.13824 c 2.90286,-3.08996 2.94822,-3.82005 2.94822,-47.457628 l 0,-44.319389 11.8644,0.118788 c 22.06582,0.220925 23.20789,0.617606 35.50532,12.332236 l 10.93536,10.417127 0,109.825006 c 0,98.033 -0.22879,110.05379 -2.13075,111.95575 -1.64941,1.64943 -5.15621,2.13075 -15.52373,2.13075 l -13.39296,0 -0.40849,-56.23499 -0.40848,-56.23501 -3.08851,-3.08703 -3.08852,-3.08703 -85.34839,0 -85.348399,0 -3.088512,3.08701 -3.088513,3.08701 -0.420889,56.23502 -0.42089,56.23502 -13.380564,0 c -10.356238,0 -13.862162,-0.4816 -15.511313,-2.13075 z m 22.276029,-24.30992 0,-7.45763 -7.457627,0 -7.457627,0 0,7.45763 0,7.45762 7.457627,0 7.457627,0 0,-7.45762 z"
     id="path2998"
     inkscape:connector-curvature="0"
     transform="scale(0.8,0.8)" />
  <path
     style="fill:#008000;fill-opacity:0"
     d="m 38.74092,280.98789 c -1.905278,-1.90527 -2.130751,-14.96221 -2.130751,-123.38983 l 0,-121.259077 27.743973,0 27.743972,0 0.391622,44.86694 0.39162,44.866937 3.201063,2.59069 c 3.043253,2.46297 6.156681,2.59069 63.153471,2.59069 l 59.95241,0 2.94823,-3.13824 c 2.90286,-3.08996 2.94822,-3.82005 2.94822,-47.457628 l 0,-44.319389 11.8644,0.118788 c 22.06582,0.220925 23.20789,0.617606 35.50532,12.332236 l 10.93536,10.417127 0,109.825006 c 0,98.033 -0.22879,110.05379 -2.13075,111.95575 -1.64941,1.64943 -5.15621,2.13075 -15.52373,2.13075 l -13.39296,0 -0.40849,-56.23499 -0.40848,-56.23501 -3.08851,-3.08703 -3.08852,-3.08703 -85.34839,0 -85.348399,0 -3.088512,3.08701 -3.088513,3.08701 -0.420889,56.23502 -0.42089,56.23502 -13.380564,0 c -10.356238,0 -13.862162,-0.4816 -15.511313,-2.13075 z m 22.276029,-24.30992 0,-7.45763 -7.457627,0 -7.457627,0 0,7.45763 0,7.45762 7.457627,0 7.457627,0 0,-7.45762 z"
     id="path3000"
     inkscape:connector-curvature="0"
     transform="scale(0.8,0.8)" />
</svg>
